<?xml version="1.0" standalone="no"?><!DOCTYPE svg PUBLIC "-//W3C//DTD SVG 1.1//EN" "http://www.w3.org/Graphics/SVG/1.1/DTD/svg11.dtd"><svg class="icon" height="512" viewBox="0 0 1024 1024" version="1.1" xmlns="http://www.w3.org/2000/svg"><path d="M752.128 181.76h107.52v18.944l-69.12 55.808h71.68v20.48h-116.224v-19.968L814.08 201.728h-61.952v-19.968z m174.08-64l94.208-76.288V15.36h-147.456v28.16H957.44l-93.184 75.264v27.136H1024V117.76h-97.792z m-0.512 890.88H0v-75.776c0-65.024 37.888-124.928 96.256-153.6l242.688-116.736v-26.112c-83.968-50.688-137.216-149.504-137.216-255.488 0-160.256 116.736-290.816 260.608-290.816s260.608 130.56 260.608 290.816c0 107.008-53.248 205.824-137.216 255.488v26.624l242.688 116.736c58.368 28.16 96.256 88.576 96.256 153.088l1.024 75.776zM388.608 693.76L117.76 823.808c-41.472 19.968-68.608 62.464-68.608 108.544l1.024 26.112H875.52V931.84c0-45.568-27.136-88.064-68.608-108.032l-270.848-130.56H388.608z" /></svg>